<?xml version='1.0' encoding='utf-8'?>
<svg xmlns="http://www.w3.org/2000/svg" viewBox="0 0 1024 1024"> <path d="m310.96 435.55c5.38 37.93 38.9 56.48 71.01 68.46q24.46 9.14 50.9 13.05-30.29 31.08-70.84 44.08-29.73 9.53-63.53 7.31-40.24-2.65-73.32-21.37-21.6-12.23-38.72-30.45 0.9-0.58 2.11-0.57 1.09 0.02 2.21-0.11 44.92-5.24 83.92-28.54 5.73-3.42 13.22-10.12 16.61-14.86 21.79-36.79 0.13-0.58 0.25-2.51 0.09-1.64 1-2.44zm13.5 49.977a13.53 11.95 0.2 0 0-13.488-11.997 13.53 11.95 0.2 0 0-13.572 11.903 13.53 11.95 0.2 0 0 13.488 11.997 13.53 11.95 0.2 0 0 13.572-11.903zm-13.7 34.313c10.1 9.62 25.71 6.75 31.16-6.13 1.28-3.02 1.04-6.99-2.75-7.9-4.46-1.07-5.33 3.26-7.13 6.03q-3.11 4.76-8.73 3.78c-6.67-1.16-7.65-6.3-8.6-11.89q-0.31-1.81-2.01-2.28c-6.13-1.67-6.25 2.87-6.62 6.99-0.37 4.06-4.01 6.63-7.85 7.26-5.17 0.85-7.68-2.25-9.69-6.48-1.21-2.56-3.36-4.23-6.39-3.17-2.02 0.71-3.03 2.7-2.9 4.76 0.46 7.75 7.99 13.92 15.43 14.69 5.96 0.62 10.97-1.32 15.1-5.64q0.48-0.5 0.98-0.02z" fill="#fff"/> <path d="m356.76 576.06 11.71 19.75q12.62 24.72 10.27 52.43c-1.53 18.12-9.59 35.51-21.08 49.78-6.91 8.57-15.51 15.25-24.52 20.68a1.26 1.26 0 0 0-0.58 1.33c1.5 7.58 2.64 14.55 2.21 22.47q-0.49 9.02-8.11 13.35-3.59 0.4-6.18-0.39c-4.05-1.24-5.35-6.59-6.16-10.44-0.67-3.24-5.48-4.32-6.59-0.83-0.87 2.76-0.97 5.77-2.61 8.19q-3.17 4.69-9.58 3.31-2.12-0.45-5.64-3.71-2.52-3.82-3.29-9.24-0.57-3.98-0.09-8.76 0.71-7.04 2.07-13.54a1.26 1.24 22.5 0 0-0.55-1.31q-4.22-2.72-8.35-5.78c-34.73-25.8-46.09-70.62-29.76-110.42q0.68-1.65 3.08-6.8 4.55-9.81 10.97-18.44 0.3-0.41 0.79-0.34c6.34 0.89 12.75 2.41 18.69 3.11 25.28 2.98 49.16 2.25 73.3-4.4z" fill="#fff"/> <path d="m289.6 811.73q-0.29 31.25-0.6 62.55-0.04 4.51-0.65 6.37c-1.03 3.11-3.9 6.61-7.59 6.52q-13-0.3-24.16-0.12c-4.61 0.08-8.89-4.25-10.72-8.03-2.16-4.44 0.51-8.14-0.85-12.63q-1.55-5.11-3.24-10.16-15.6-46.56-31.4-94.71 6.02 5.35 11.64 10.6 8.18 7.63 11.74 10.47 15.48 12.37 33.56 20.03 9.54 4.03 21.92 7.73 0.31 0.09 0.46 0.37 0.25 0.44-0.11 1.01z" fill="#fff"/> <path d="m404.79 763.69q-2.85 3.3-4.37 8.05-13.82 43.3-30.48 94.81-0.33 1.02-0.57 2.11c-0.34 1.51 0.25 3.53 0.5 5.06 0.78 4.77-2.79 9.73-6.59 12.22-2.16 1.41-4.5 1.14-7.09 1.12q-10.5-0.05-20.73 0.03-2.84 0.03-4.46-1.19c-5.26-3.96-4.47-9.41-4.49-15.24q-0.11-30.51-0.13-60.47 31.72-8.12 56.64-28.95 2.9-2.42 9.37-8.59 4.61-4.4 9.32-8.69 1.17-1.06 2.02-1.05 1.26 0.02 1.06 0.78z" fill="#fff"/> <g fill="#e08547"> <path d="m407.94 194.35a8.94 7.13 99.4 0 1-5.5742-9.9845 8.94 7.13 99.4 0 1 8.4944-7.6555 8.94 7.13 99.4 0 1 5.5742 9.9845 8.94 7.13 99.4 0 1-8.4944 7.6555z"/> <path d="m737.53 183.27c12.89 3.2 25.85 7.7 37.19 14.65 1.22 0.76 3.04 1.36 4.46 1.59q10.17 1.67 14.61 3.07c22.27 7.05 42.22 18.06 61.69 31.08q22.93 15.33 47.73 32.69c10.9 7.63 19.44 17.48 17.7 31.13-2.04 15.9-7.52 30.73-15.23 46.19q-6.29 12.02-8.25 15.26-13.19 21.79-32.02 38.6c-1.33-2.02-2.29-3.85-3.93-5.52-12.02-12.21-21.51-26.27-26.57-43.09q-3.74-12.43-5.31-24-4.23-31.2-8.54-60.29-0.84-5.71-4.98-8.49c-3.38-2.28-8.17 0.72-8.74 4.38q-0.32 2.01-0.01 3.94 4.25 26.54 7.01 47.78 2.18 16.84 4.22 27.26 1.34 6.87 4.52 17.05-0.96-0.08-1.07 2.08-0.06 1.39-0.28 2.21c-4.76 18.09-13.14 34.78-27.04 47.9q-2.95 2.78-5.82 4.37-0.42 0.23-0.72 0.59l-0.59 0.7q-0.49-0.05-1.27 0.44c-12.11 7.5-25.31 12.73-39.05 16.38q-1.99 0.53-4.26 0.51 6.49-3.18 13.33-9.42 14.93-13.64 17.38-32.32c2.91-22.29-3.65-44.53-16.01-63.2q-8.02-12.12-20.84-20.3c-11.22-7.16-25.92-9.08-39.59-8.4q-17.32 0.86-30.31 9.51c-14.64 9.75-25.34 26.97-30.33 43.43-6.53 21.58-7.11 46.06 7.71 64.43q9.44 11.7 22.63 17.26-25.41-4.2-47.23-17.73-0.37-0.22-0.26 0.07-0.21-0.56-0.49-0.76-12.38-8.7-20.81-21.84-9.24-14.4-12.87-29.8-0.34-1.47-0.51-3.06-0.2-1.88-1.02-3.16 3.88-13.73 5.7-26.69 2.44-17.45 5.88-45.74 1.23-10.06 3.1-20.1c0.97-5.19-5.22-10.95-9.91-6.77-3.59 3.2-4 8.44-4.65 12.93q-3.47 23.91-6.83 53.03c-2.17 18.82-6.86 36.49-17.91 51.74q-8.01 11.07-16.59 19.46-0.65 0.64-1.47 3.81-8.8-6.64-16.23-15.21c-19.07-21.99-33.6-48.65-40.24-76.91q-1.37-5.84-1.62-11.71c-0.35-8.39 4.59-16.27 11.03-21.58q6.71-5.52 15.29-11.47 21.82-15.16 39.92-27.06c19.04-12.53 40.56-24.26 62.4-30.81 4.72-1.42 9.53-2.47 14.34-3.42q2.45-0.48 5.23-2.09 7.55-4.35 11.63-6.03 45.87-18.96 94.7-8.55zm-93.99 117.83a14.21 13.68 101.2 0 0 16.18-11.282 14.21 13.68 101.2 0 0-10.659-16.596 14.21 13.68 101.2 0 0-16.18 11.282 14.21 13.68 101.2 0 0 10.659 16.596zm115.14 0.1475a14.24 13.99 96.9 0 0 15.599-12.456 14.24 13.99 96.9 0 0-12.178-15.818 14.24 13.99 96.9 0 0-15.599 12.456 14.24 13.99 96.9 0 0 12.178 15.818z"/> <path d="m422.63 205.24a10.5 9.17 123.9 0 1-1.7549-13.83 10.5 9.17 123.9 0 1 13.468-3.6006 10.5 9.17 123.9 0 1 1.7549 13.83 10.5 9.17 123.9 0 1-13.468 3.6006z"/> <path d="m387.71 210.37a10.96 9.68 96.2 0 1-8.4397-11.941 10.96 9.68 96.2 0 1 10.807-9.8505 10.96 9.68 96.2 0 1 8.4397 11.941 10.96 9.68 96.2 0 1-10.807 9.8505z"/> <path d="m396.86 244.6c-5.4-2.27-10.66-6.25-12.21-12.01q-1.91-7.08 3.21-12.82c4.04-4.53 9.08-8.62 14.41-11.91 4.5-2.78 11.27-2.2 14.41 1.95q2.29 3.02 3.24 8.15c1.48 7.97 4.71 23.87-5.58 27.45q-8.49 2.95-17.48-0.81z"/> <path d="m428.11 230.58a10.65 9.34 132.1 0 1 0.2099-14.164 10.65 9.34 132.1 0 1 14.07-1.6402 10.65 9.34 132.1 0 1-0.2099 14.164 10.65 9.34 132.1 0 1-14.07 1.6402z"/> <path d="m800.56 467.08q17.4 33.99 27.24 71.18c5.22 19.68 9.16 40.14 11.2 60.63q4.84 48.72 0.75 98.91a0.56 0.56 0 0 0 0.56 0.61c16.72 0.21 33.49 4.4 47.36 13.79q15.96 10.82 23.84 28.38 3.08 6.62 3.92 12.66 2.92 21.02-6.12 39.83c-9.19 19.12-24.13 32.39-43.21 43.04-1.7 0.95-4.66 2.56-4.05 4.93a0.61 0.61 0 0 0 0.65 0.45c15.01-1.45 29.83 0.14 39.54 12.71q4.9 6.34 5.49 13.1 0.7 8.01-3.4 15.39-0.99 1.8-2.13 3.81l-11.61 0.24q-0.5 0.01-0.56-0.49-0.95-8.72-2.36-19.53c-0.81-6.25-10.11-6.67-9.79 0.81q0.39 9.29 1.9 18.32a0.58 0.58 0 0 1-0.54 0.67l-9.46 0.61q-0.69 0.05-0.77-0.64-0.82-7.5-2.49-17.15c-1.17-6.7-10.04-6.03-9.42 0.35q0.77 7.88 2.16 16.53a0.57 0.56-4.4 0 1-0.56 0.65l-16.99-0.07q-0.47-8.8-3.2-22.55c-0.58-2.96-1.6-2.57-4.06-2.54q-9.74 0.14-19.43 0.37-2.2 0.05-4.91 0.54-2.37 0.43-4.84 0.65-2.33-8.53-6.58-12.95-1.18-1.23-2.15-2.58-0.32-0.43 0-0.86c18.45-25.04 28.54-55.71 33.67-86.45q1.77-10.6 1.71-16.92-0.08-8.5-6.88-13.23 1.41-6.3 1.27-12.28-0.23-9.95-0.07-18.59c0.19-10.42-0.07-19.02-0.36-28.66q-0.12-4.28-1.22-8.39a0.93 0.93 0 0 0-1.6-0.38q-0.65 0.76-1 1.73-3.97 11.11-7.36 24.11c-3.5 13.44-7.49 26.33-10.68 39.91q-0.89 3.76-0.34 7.47-2.42 2.79-3.59 6.81-3.6 12.38-6.93 26.73-6.54 28.24-12.39 54.29-2.55 11.32-4.73 22.54a1.06 1.06 0 0 0 0.75 1.23q14.47 4.11 19.02 17.55 3.26 9.62-2.31 17.7-3.98 5.79-11.2 5.42a1.03 1.02-88.5 0 1-0.97-1.03q-0.04-9.4-0.55-17.93c-0.4-6.53-9.37-7.07-9.5-0.21q-0.17 8.86 0.3 18.06 0.03 0.62-0.59 0.62h-8.52q-0.69 0-0.72-0.69-0.35-8.6-0.19-16.95 0.1-5.03-5.13-5.48c-3.38-0.28-4.88 3.5-4.87 6.3q0.04 8.16 0.11 16.23a0.66 0.66 0 0 1-0.66 0.66l-15.04-0.03a0.91 0.91 0 0 1-0.91-0.94c1.32-45.38 3.11-89.24 4.78-134.34q0.27-7.18-0.03-12.6c-0.55-9.84-5.89-19.85-14.02-25.41q-13.03-8.9-28.74-4.24c-10.82 3.21-18.28 12.45-21.12 23.25q-1.29 4.88-1.03 14.61 0.78 28.62 2.26 68.9 1.23 33.46 2.03 69.32 0.03 1.44-1.41 1.45l-17.58 0.09a0.74 0.74 0 0 1-0.75-0.76q0.24-7.37 0.13-17.26c-0.07-6.08-9.17-7.8-9.5-0.42q-0.4 9.23-0.26 17.73 0.01 0.56-0.55 0.57l-10.13 0.25a0.64 0.64 0 0 1-0.65-0.64q-0.09-9.07 0.19-18.38c0.09-3.08-1.48-4.44-4.49-4.54q-4.48-0.15-4.98 4.56-1.02 9.61-0.97 18.63a0.76 0.76 0 0 1-1.22 0.61q-9.29-7-8.75-19.06c0.49-10.98 10.75-19.94 21.18-21.15a0.56 0.56 0 0 0 0.49-0.64q-0.46-2.97-1.09-5.79c-7.01-31.37-14.28-62.58-22.74-93.95q-0.82-3.06-2.79-5.62 0.16-4.92-1.83-11.5-9.73-32.23-15.56-50.68c-1.75-5.56-4.14-11.03-6.47-16.36q-0.62-1.42-1.66-0.27-0.69 0.77-0.74 2.02-1 25.43-0.73 45.29 0.15 11.2 0.84 17.5 0.2 1.84 1.67 5.35c-8.05 4.85-7.29 13.52-6.03 21.27q3.87 23.79 12.34 47.17 7.66 21.18 18.37 37.04 2.65 3.92 5.84 7.59a1.43 1.42 47.1 0 1-0.07 1.95q-2.1 2.07-4.26 4.15-4.17 4.01-6.56 12.4-14.89-1.37-30.22-1.1-1.65 0.03-2 1.64-1.77 8.09-2.87 17-0.18 1.4 0.23 2.5 0.42 1.12 1.1 2.34l-18.91 0.39q-0.59 0.01-0.51-0.57 1.1-7.92 2.2-15.66c0.97-6.86-8.55-7.96-9.73-0.99q-1.39 8.19-2.29 15.87-0.11 0.87-0.98 0.9l-6.24 0.23q-0.97 0.04-0.84-0.92 1.31-9.3 2.17-18.05 0.44-4.51-3.95-5.49c-4.83-1.08-6.01 3.96-6.44 7.52q-1.02 8.6-1.86 16.6-0.05 0.47-0.52 0.44l-8.61-0.58q-6.37-5.31-7.28-13.35c-0.82-7.26 1.06-13.88 5.66-19.55 9.63-11.89 24.54-13.33 39.13-11.6a1.18 1.18 0 0 0 1.19-1.72q-0.79-1.55-2.58-2.35c-23.06-10.34-42.89-29.28-51.11-53.36-4.38-12.84-4.48-28.48 0.13-41.63 8.35-23.87 29.63-38.08 54.2-42.62q6.56-1.21 13.06-1.76 0.6-0.05 0.54-0.65-1.34-15.03-2.05-28.38-1.9-35.89 1.45-71.5 5.38-57.16 27.72-111.03 3.34-8.06 10.04-21.06 5.78 3.24 11.22 6.57 6.72 4.12 11.68 6.56c18.74 9.23 40.65 14.39 62.65 16.45q7.49 0.71 16.14 0.14 23.74-1.54 43.42-7.57 22.54-6.91 42.21-20.34 1.03-0.7 2.29-0.66 1.11 0.04 2.65 0.25zm-144.78 124.61a0.91 0.91 0 0 1 0.94 1c-0.54 5.38-1.56 10.59-1.4 16.07q0.56 18.28 13.34 31.58 20.93 21.76 51.84 14.89 11.98-2.66 21.49-10.69 18.23-15.39 16.78-39.25c-0.3-5.05-2.23-10.53-2.95-15.75a0.88 0.88 0 0 1 1-0.98c2.55 0.38 5.63 1.04 7.92-0.47 6.16-4.05 0.46-12.98-2.84-16.7q-5.72-6.47-12.4-13.77-7.66-8.37-12.2-19.42-0.89-2.19-0.47-4.38a1.13 1.12-2.6 0 1 0.8-0.87c2.46-0.66 7.54 2.39 10 3.43 4.24 1.79 9.24 0.11 8.99-5.29q-0.12-2.5-1.63-5.12-10.09-17.54-29.03-23.17-14.64-4.35-30.49-1.53c-15.86 2.81-28.44 10.88-36.31 25.24q-2.28 4.17-2.99 8.26-0.83 4.71 3.19 6.99c2.48 1.42 7.53-0.92 10.22-1.72a1.35 1.34-9.9 0 1 1.73 1.21c0.12 1.95-0.72 3.44-1.55 5.21q-4.72 9.93-11.66 17.64-4.48 4.98-8.88 9.8c-3.64 3.99-7.2 9.23-5.1 14.86 2.13 5.69 7.47 3.1 11.66 2.93z"/> <path d="m731.46 560.57c1.69 3.41 4.12 6.71 5.14 10.5 0.92 3.38-0.79 6.83-4.46 7.15-8.16 0.7-14.98-12.42-17.19-19.34q-1.13-3.56-0.45-6.25c1.72-6.84 8.6-6.6 11.87-1.31q2.54 4.12 5.09 9.25z"/> <path d="m388.83 564.55 6.39 19.83q-8.06 2.45-15.78 6.27c-2.7 1.34-5.42 2.27-8.11 3.42q-0.85 0.36-1.31 1.34-0.23 0.5-0.78 0.46l-0.77-0.06-11.71-19.75q16.34-3.92 32.07-11.51z"/> <path d="m64.31 721.11q-1.88 5.58-2.39 10.55-0.57 5.58 1.17 10.05 4.59 11.87 15.62 17.27 4.3 2.11 11.13 2.87 7.15 0.81 13.35-1.48a0.82 0.82 0 0 1 0.89 0.22q0.16 0.16-0.12 0.66-7.13 8.23-10.17 16.75c-8.12 22.74 2.13 45.59 22.51 57.74q11.8 7.03 26.14 8.59 4.62 0.5 6.33 0.41 4.82 8.71 8.31 13.68c7.39 10.5 18.13 21.31 29.57 27.5q1.32 0.72-0.18 0.71l-81.26-0.46q-6.92-0.61-9.73-1.61-3.88-1.37-11.42-6.1-26.49-16.59-40.14-44.32c-16.62-33.78-12.54-72.01 10.26-102.23q4.58-6.06 10.13-10.8z"/> <path d="m470.97 828.77c-6.75 21.04-19.25 38.86-36.33 52.64q-1.65 1.33-3.81 2.55-1.92 1.09-3.99 2.28l-46.56 0.56 3.21-0.86q0.56-0.15 0.83-0.66 0.7-1.29 2.32-1.35a2.77 2.68-60 0 0 1.19-0.34q1.01-0.57 2.03-0.9 1.81-0.59 2.23-0.77 6.72-2.8 13.32-5.87c4.49-2.09 8.62-4.78 12.81-7.37q8.28-5.12 15.61-12.6c3.67-3.74 7.52-7.47 10.76-11.7s6.43-9.29 10.4-12.38q3.86-3 7.26-3.86 5.02-1.27 8.72 0.63z"/> </g> <g fill="#422d14"> <path d="m263 192.1q0.3 3.25 0.35 6.64c0.16 11.8-6.28 19.46-15.69 25.27q-0.89 0.55 0.13 0.79 9.43 2.27 13.79 9.73 3.73 6.37 2.63 12.49-1.36 7.56-7.24 10.91c-8.92 5.09-18.92 1.74-24.39-6.5q-1-1.49-1.99-2.97-1.69-2.54-0.85 0.39 0.71 2.51 0.31 4.38c-0.51 2.43-3.55 3.23-5.64 2.35-1.65-0.69-2.26-2.51-3.24-3.88q-0.57-0.78-0.43 0.17c1.35 9.72-2.8 17.64-11.39 21.24-9.16 3.85-17.26-2.42-20.29-11.21-2.62-7.63-0.02-15.37 5.29-21.14q0.87-0.95-0.42-0.94l-6.98 0.06c-13.47-1.73-22.96-14.92-25.13-27.15q-2.04-11.54 9.48-13.25 6-0.9 14.52 2.4 13.31 5.14 26.06 15.37c2.01 1.6 5.26 2.68 6.57-0.53 3.81-9.38 7.73-17.8 13.36-26.32 3.79-5.74 11.17-14.89 18.56-15.08 9.66-0.25 11.71 9.13 12.63 16.78z"/> <path d="m213.61 203.97c-5.81 4.35-9.1-9.57-9.55-12.3q-0.53-3.18 2.45-4.41 0.55-0.23 1.13-0.3 4.22-0.5 5.51 3.54c0.91 2.84 3.31 11.33 0.46 13.47z"/> <path d="m865.41 397.53q-2.03 1.26-4 2.47-2.5 1.55-4.3 1.66-3.8 0.22-6.97-2.81-18.73-17.9-27.06-42.3-3.18-10.18-4.52-17.05-2.04-10.42-4.22-27.26-2.76-21.24-7.01-47.78-0.31-1.93 0.01-3.94c0.57-3.66 5.36-6.66 8.74-4.38q4.14 2.78 4.98 8.49 4.31 29.09 8.54 60.29 1.57 11.57 5.31 24c5.06 16.82 14.55 30.88 26.57 43.09 1.64 1.67 2.6 3.5 3.93 5.52z"/> <path d="m583.76 356.44q-8.6 25.27-28.14 42.68-6.98 6.22-14.54-1.01 0.82-3.17 1.47-3.81 8.58-8.39 16.59-19.46c11.05-15.25 15.74-32.92 17.91-51.74q3.36-29.12 6.83-53.03c0.65-4.49 1.06-9.73 4.65-12.93 4.69-4.18 10.88 1.58 9.91 6.77q-1.87 10.04-3.1 20.1-3.44 28.29-5.88 45.74-1.82 12.96-5.7 26.69z"/> <path d="m643.54 301.1a14.21 13.68 101.2 0 1-10.659-16.596 14.21 13.68 101.2 0 1 16.18-11.282 14.21 13.68 101.2 0 1 10.659 16.596 14.21 13.68 101.2 0 1-16.18 11.282z"/> <path d="m758.68 301.25a14.24 13.99 96.9 0 1-12.178-15.818 14.24 13.99 96.9 0 1 15.599-12.456 14.24 13.99 96.9 0 1 12.178 15.818 14.24 13.99 96.9 0 1-15.599 12.456z"/> <path d="m709.01 373.26q0.22 5.64 0.38 11.76c0.05 1.81 0.56 3.74 1.52 5.31 2.48 4.01 6.29 9.2 10.8 10.93 3.46 1.34 10.54 2.21 8.36 7.71-2.09 5.27-9.81 3.45-13.56 1.37q-7.32-4.06-12.26-10.28-0.86-1.08-1.65 0.05-6.6 9.42-17.56 12.15-3.23 0.8-5.76-0.74c-3.86-2.35-2.34-7.41 1.83-8.41q9.95-2.38 16.31-13.17 1.12-1.91 1.1-4.36-0.04-5.67 0.04-12.15a0.84 0.84 0 0 0-0.78-0.85q-9.43-0.76-17.12-7.74c-7.73-7.01-13.5-18.12-9.45-28.67 2.76-7.21 11.47-12.98 18.57-13.98 7.72-1.08 16.89-0.87 25.02-0.3q7.77 0.55 14.24 5.77c19.81 16.01 0.47 42.85-19.42 44.9q-0.63 0.07-0.61 0.7z"/> <path d="m402.62 336.6c11.19-1.6 15.98 6.59 17.26 16.16q1.48 11.07 1.48 22.24 0.01 25.47-4.04 50.44 0.4 0.71 0.35 1.16-0.07 0.64-0.6 0.29-1.65-1.09-1.19-2.87a0.78 0.78 0 0 0-0.25-0.8l-1.87-1.6a0.63 0.62 50 0 0-0.72-0.07q-0.17 0.09-0.37 0.1-0.16 0-0.24-0.14-2.31-4.19-7.17-6.3-0.41-0.17-0.58-0.58l-0.56-1.35q4.4-30.15 2.67-61.48-0.03-5.48-2.06-11.52-0.29-0.85-1-1.84-0.66-0.92-1.11-1.84z"/> <path d="m213.99 336.6-1.08 8.74q-0.87 5.18-0.91 6.91c-0.4 20.72 2.29 40.13 6.32 60.71-0.02 0.46-0.22 0.97-0.63 1.27q-7.16 5.1-14.32 11.17-4.19-22.89-4.88-45.15-0.36-11.85 0.8-24.55c0.44-4.72 1.14-9.71 3.69-13.45q3.91-5.74 11.01-5.65z"/> <path d="m787.56 414.4 4.49 33.48q-18.71 13.89-40.63 20.06c-42.15 11.86-90.1 8.67-128.15-14.21q-1.72-1.04-3.78-2.75-1.81-1.51-3.7-2.91l3.67-33.01q-0.11-0.29 0.26-0.07 21.82 13.53 47.23 17.73 8.39 2.54 19.05 3.6 21.04 2.09 42.99-1.18 7.87-1.17 13.99-3.41 2.27 0.02 4.26-0.51c13.74-3.65 26.94-8.88 39.05-16.38q0.78-0.49 1.27-0.44z"/> <path d="m358.28 476.11a14.59 14.23 71.4 0 1-18.14-9.2891 14.59 14.23 71.4 0 1 8.8331-18.367 14.59 14.23 71.4 0 1 18.14 9.2891 14.59 14.23 71.4 0 1-8.8331 18.367z"/> <path d="m259.22 474.48a14.51 14.18 123.3 0 1-3.8854-19.913 14.51 14.18 123.3 0 1 19.818-4.3425 14.51 14.18 123.3 0 1 3.8854 19.913 14.51 14.18 123.3 0 1-19.818 4.3425z"/> <path d="m324.46 485.53a13.53 11.95 0.2 0 1-13.572 11.903 13.53 11.95 0.2 0 1-13.488-11.997 13.53 11.95 0.2 0 1 13.572-11.903 13.53 11.95 0.2 0 1 13.488 11.997z"/> <path d="m171.69 479.75c3.48 0.67 12.15 2.56 9.68 8.29q-1.53 3.56-6.12 2.84-3.74-0.58-6.1-1.48-12.79-1.9-25.65-3.85c-3.6-0.54-6.63-4.93-4.56-8.55q1.64-2.86 5.82-2.25 14.2 2.07 26.93 5z"/> <path d="m172.08 510.49q-9.82 1.92-18.93 4.18c-3.6 0.89-7.68 0.85-8.7-3.42q-1.33-5.57 4.45-6.78 10.18-2.13 20.81-3.99 3.67-0.76 7.79-1.07 2.69-0.2 4.72 1.43c2.2 1.76 2.85 5.43 0.05 7.03q-1.74 0.99-3.53 1.33-3.73 0.7-6.66 1.29z"/> <path d="m449.65 500.52q5.76 0.95 20.1 3.7 2.09 0.4 3.86 1.45c3.62 2.16 2.73 6.68-0.37 8.87q-1.34 0.94-4.93 0.26-10.68-2.04-20.81-3.96-0.64-0.12-1.05 0.19-2.08-2.22-5.89-2.13a1.21 1.2 69.7 0 1-0.95-0.44c-1.14-1.4-0.52-3.68-0.11-5.29 0.69-2.78 4.33-2.84 6.75-2.84q2.33 0 3.4 0.19z"/> <path d="m309.78 519.86c-4.13 4.32-9.14 6.26-15.1 5.64-7.44-0.77-14.97-6.94-15.43-14.69-0.13-2.06 0.88-4.05 2.9-4.76 3.03-1.06 5.18 0.61 6.39 3.17 2.01 4.23 4.52 7.33 9.69 6.48 3.84-0.63 7.48-3.2 7.85-7.26 0.37-4.12 0.49-8.66 6.62-6.99q1.7 0.47 2.01 2.28c0.95 5.59 1.93 10.73 8.6 11.89q5.62 0.98 8.73-3.78c1.8-2.77 2.67-7.1 7.13-6.03 3.79 0.91 4.03 4.88 2.75 7.9-5.45 12.88-21.06 15.75-31.16 6.13q-0.5-0.48-0.98 0.02z"/> <path d="m186.46 516.63q17.12 18.22 38.72 30.45 33.08 18.72 73.32 21.37 33.8 2.22 63.53-7.31 40.55-13 70.84-44.08-0.61-0.4 0.28-0.78 0.36-0.16 0.74-0.08c2.11 0.42 5.05 0.87 5.93 3.1q0.16 0.41 0.61 0.39 0.33-0.03 0.58-0.19 0.46-0.29 0.7 0.21 0.1 0.21 0.1 0.52l-0.64 1.06q-0.47 0.78 0.4 1.05 16.67 4.98 32.29 10.44 2.47 0.86 4.61 2.38c5.3 3.78 0.89 11.72-4.8 9.75q-19.65-6.83-38.21-12.65a1.43 1.43 0 0 0-1.52 0.45q-1.51 1.78-3.27 3.46-18.82 17.87-41.84 28.38-15.73 7.59-32.07 11.51c-24.14 6.65-48.02 7.38-73.3 4.4-5.94-0.7-12.35-2.22-18.69-3.11q-0.49-0.07-0.79 0.34-6.42 8.63-10.97 18.44l-2.04-2.9q-0.28-0.4-0.73-0.59c-1.8-0.77-3.64-1.3-5.43-2.17q-5.58-2.73-11.07-5.5-1.91-0.97-4.16-1.42-2.18-0.43-4.44-0.66l4.81-17.96a0.57 0.56 18.8 0 0-0.33-0.67c-2.33-0.96-4.64-1.82-6.82-3.04q-21.01-11.73-37.78-28.43-1.25-1.25-3.07-0.67-19.95 6.35-38.37 12.37c-7.32 2.4-10.9-6.9-4.25-10.07q2.75-1.31 5.98-2.35 13.72-4.42 27.23-8.6c1.54-0.48 3.26-0.79 4.87-0.92q0.64-0.06 0.41-0.66l-1.77-4.65q5.8-1.36 10.41-0.61z"/> <path d="m803.68 735.2q3.46-2.76 4.86-3.64 7.54-4.71 16.5-1.28 6.8 4.73 6.88 13.23 0.06 6.32-1.71 16.92c-5.13 30.74-15.22 61.41-33.67 86.45q-0.32 0.43 0 0.86 0.97 1.35 2.15 2.58 4.25 4.42 6.58 12.95 3.2 12.44-3.11 22.77a0.61 0.61 0 0 0 0.53 0.93l39.02-0.17 16.99 0.07a0.57 0.56-4.4 0 0 0.56-0.65q-1.39-8.65-2.16-16.53c-0.62-6.38 8.25-7.05 9.42-0.35q1.67 9.65 2.49 17.15 0.08 0.69 0.77 0.64l9.46-0.61a0.58 0.58 0 0 0 0.54-0.67q-1.51-9.03-1.9-18.32c-0.32-7.48 8.98-7.06 9.79-0.81q1.41 10.81 2.36 19.53 0.06 0.5 0.56 0.49l11.61-0.24q16.91 0.04 33.17-0.17c6.26-0.08 10.21 5.62 6.38 11.67q-0.71 0.49-2.01 1.18-1.02 0.53-2.21 0.58-4.4 0.16-9.1 0.16-413.56-0.03-849.25-0.07-5.65-0.01-11.92-0.1-2.11-0.03-3.34-0.77-1.59-0.97-2.53-2.56-2.79-6.48 3.35-9.4 0.98-0.47 4.6-0.51 17.93-0.22 35.87-0.34l81.26 0.46q1.5 0.01 0.18-0.71c-11.44-6.19-22.18-17-29.57-27.5q-3.49-4.97-8.31-13.68-4.27-8.24-6.92-16.53 0.95-2.55 3.89-1.73 3.28 0.9 6.25 1.83c2.22 0.68 4.3 1.96 5.44 4.07q2.72 5.02 5.83 9.08 9.12 11.9 19.72 20.58 9.62 7.88 25.93 16.11 4.93 2.49 11.18 4.58c5.75 1.92 11.98 4.7 17.92 4.97a0.95 0.95 0 0 0 0.87-1.43q-2.78-4.83-4.6-10.94c-2.07-6.96-4.62-13.75-6.33-20.83q-0.97-4-2.24-7.89-3.35-10.23-7.09-20.94-0.96-2.75-2.22-7.28-1.01-3.6-2.26-7.23c-0.81-2.33-1.25-5.56-2.19-8.25q-3.71-10.58-6.9-21.28-1.09-3.65-1.75-7.66-0.71-4.3 0.73-7.38 1.77-3.79 6.36-5.07 15.8 48.15 31.4 94.71 1.69 5.05 3.24 10.16c1.36 4.49-1.31 8.19 0.85 12.63 1.83 3.78 6.11 8.11 10.72 8.03q11.16-0.18 24.16 0.12c3.69 0.09 6.56-3.41 7.59-6.52q0.61-1.86 0.65-6.37 0.31-31.3 0.6-62.55 1.55-0.99 1.53-2.1-0.42-20.57 0.29-41.13 0.21-6.26-1.52-16.52 3.52 3.26 5.64 3.71 6.41 1.38 9.58-3.31c1.64-2.42 1.74-5.43 2.61-8.19 1.11-3.49 5.92-2.41 6.59 0.83 0.81 3.85 2.11 9.2 6.16 10.44q2.59 0.79 6.18 0.39l-0.28 54.34q0.02 29.96 0.13 60.47c0.02 5.83-0.77 11.28 4.49 15.24q1.62 1.22 4.46 1.19 10.23-0.08 20.73-0.03c2.59 0.02 4.93 0.29 7.09-1.12 3.8-2.49 7.37-7.45 6.59-12.22-0.25-1.53-0.84-3.55-0.5-5.06q0.24-1.09 0.57-2.11 16.66-51.51 30.48-94.81 1.52-4.75 4.37-8.05 9.03 0.16 7.73 8.56-0.51 3.23-3.39 12.63-11.84 38.53-25.46 81.36c-2.18 6.86-3.71 13.74-6.88 20.3a0.31 0.31 0 0 0 0.29 0.44l3.2-0.18 46.56-0.56h91.36l8.61 0.58q0.47 0.03 0.52-0.44 0.84-8 1.86-16.6c0.43-3.56 1.61-8.6 6.44-7.52q4.39 0.98 3.95 5.49-0.86 8.75-2.17 18.05-0.13 0.96 0.84 0.92l6.24-0.23q0.87-0.03 0.98-0.9 0.9-7.68 2.29-15.87c1.18-6.97 10.7-5.87 9.73 0.99q-1.1 7.74-2.2 15.66-0.08 0.58 0.51 0.57l18.91-0.39 37.17 0.24a0.61 0.61 0 0 0 0.56-0.85c-1.54-3.47-3.46-6.63-4.04-10.43q-0.87-5.7 0.07-11.34 2.39-8.39 6.56-12.4 2.16-2.08 4.26-4.15a1.43 1.42 47.1 0 0 0.07-1.95q-3.19-3.67-5.84-7.59-10.71-15.86-18.37-37.04-8.47-23.38-12.34-47.17c-1.26-7.75-2.02-16.42 6.03-21.27 9.88-2.2 17.29 2.29 24.48 8.65q1.97 2.56 2.79 5.62c8.46 31.37 15.73 62.58 22.74 93.95q0.63 2.82 1.09 5.79a0.56 0.56 0 0 1-0.49 0.64c-10.43 1.21-20.69 10.17-21.18 21.15q-0.54 12.06 8.75 19.06a0.76 0.76 0 0 0 1.22-0.61q-0.05-9.02 0.97-18.63 0.5-4.71 4.98-4.56c3.01 0.1 4.58 1.46 4.49 4.54q-0.28 9.31-0.19 18.38a0.64 0.64 0 0 0 0.65 0.64l10.13-0.25q0.56-0.01 0.55-0.57-0.14-8.5 0.26-17.73c0.33-7.38 9.43-5.66 9.5 0.42q0.11 9.89-0.13 17.26a0.74 0.74 0 0 0 0.75 0.76l17.58-0.09q1.44-0.01 1.41-1.45-0.8-35.86-2.03-69.32-1.48-40.28-2.26-68.9-0.26-9.73 1.03-14.61c2.84-10.8 10.3-20.04 21.12-23.25q15.71-4.66 28.74 4.24c8.13 5.56 13.47 15.57 14.02 25.41q0.3 5.42 0.03 12.6c-1.67 45.1-3.46 88.96-4.78 134.34a0.91 0.91 0 0 0 0.91 0.94l15.04 0.03a0.66 0.66 0 0 0 0.66-0.66q-0.07-8.07-0.11-16.23c-0.01-2.8 1.49-6.58 4.87-6.3q5.23 0.45 5.13 5.48-0.16 8.35 0.19 16.95 0.03 0.69 0.72 0.69h8.52q0.62 0 0.59-0.62-0.47-9.2-0.3-18.06c0.13-6.86 9.1-6.32 9.5 0.21q0.51 8.53 0.55 17.93a1.03 1.02-88.5 0 0 0.97 1.03q7.22 0.37 11.2-5.42 5.57-8.08 2.31-17.7-4.55-13.44-19.02-17.55a1.06 1.06 0 0 1-0.75-1.23q2.18-11.22 4.73-22.54 5.85-26.05 12.39-54.29 3.33-14.35 6.93-26.73 1.17-4.02 3.59-6.81z"/> </g> <g fill="#fad39d"> <path d="m742.98 431.73q-6.12 2.24-13.99 3.41-21.95 3.27-42.99 1.18-10.66-1.06-19.05-3.6-13.19-5.56-22.63-17.26c-14.82-18.37-14.24-42.85-7.71-64.43 4.99-16.46 15.69-33.68 30.33-43.43q12.99-8.65 30.31-9.51c13.67-0.68 28.37 1.24 39.59 8.4q12.82 8.18 20.84 20.3c12.36 18.67 18.92 40.91 16.01 63.2q-2.45 18.68-17.38 32.32-6.84 6.24-13.33 9.42zm-33.36-59.17c19.89-2.05 39.23-28.89 19.42-44.9q-6.47-5.22-14.24-5.77c-8.13-0.57-17.3-0.78-25.02 0.3-7.1 1-15.81 6.77-18.57 13.98-4.05 10.55 1.72 21.66 9.45 28.67q7.69 6.98 17.12 7.74a0.84 0.84 0 0 1 0.78 0.85q-0.08 6.48-0.04 12.15 0.02 2.45-1.1 4.36-6.36 10.79-16.31 13.17c-4.17 1-5.69 6.06-1.83 8.41q2.53 1.54 5.76 0.74 10.96-2.73 17.56-12.15 0.79-1.13 1.65-0.05 4.94 6.22 12.26 10.28c3.75 2.08 11.47 3.9 13.56-1.37 2.18-5.5-4.9-6.37-8.36-7.71-4.51-1.73-8.32-6.92-10.8-10.93-0.96-1.57-1.47-3.5-1.52-5.31q-0.16-6.12-0.38-11.76-0.02-0.63 0.61-0.7z"/> <path d="m655.78 591.69c-4.19 0.17-9.53 2.76-11.66-2.93-2.1-5.63 1.46-10.87 5.1-14.86q4.4-4.82 8.88-9.8 6.94-7.71 11.66-17.64c0.83-1.77 1.67-3.26 1.55-5.21a1.35 1.34-9.9 0 0-1.73-1.21c-2.69 0.8-7.74 3.14-10.22 1.72q-4.02-2.28-3.19-6.99 0.71-4.09 2.99-8.26c7.87-14.36 20.45-22.43 36.31-25.24q15.85-2.82 30.49 1.53 18.94 5.63 29.03 23.17 1.51 2.62 1.63 5.12c0.25 5.4-4.75 7.08-8.99 5.29-2.46-1.04-7.54-4.09-10-3.43a1.13 1.12-2.6 0 0-0.8 0.87q-0.42 2.19 0.47 4.38 4.54 11.05 12.2 19.42 6.68 7.3 12.4 13.77c3.3 3.72 9 12.65 2.84 16.7-2.29 1.51-5.37 0.85-7.92 0.47a0.88 0.88 0 0 0-1 0.98c0.72 5.22 2.65 10.7 2.95 15.75q1.45 23.86-16.78 39.25-9.51 8.03-21.49 10.69-30.91 6.87-51.84-14.89-12.78-13.3-13.34-31.58c-0.16-5.48 0.86-10.69 1.4-16.07a0.91 0.91 0 0 0-0.94-1zm75.68-31.12q-2.55-5.13-5.09-9.25c-3.27-5.29-10.15-5.53-11.87 1.31q-0.68 2.69 0.45 6.25c2.21 6.92 9.03 20.04 17.19 19.34 3.67-0.32 5.38-3.77 4.46-7.15-1.02-3.79-3.45-7.09-5.14-10.5z"/> </g> <g fill="#f5f6e9"> <path d="m737.53 183.27q-48.83-10.41-94.7 8.55-4.08 1.68-11.63 6.03-2.78 1.61-5.23 2.09c-4.81 0.95-9.62 2-14.34 3.42-21.84 6.55-43.36 18.28-62.4 30.81q-18.1 11.9-39.92 27.06-8.58 5.95-15.29 11.47c-6.44 5.31-11.38 13.19-11.03 21.58q0.25 5.87 1.62 11.71c6.64 28.26 21.17 54.92 40.24 76.91q7.43 8.57 16.23 15.21 7.56 7.23 14.54 1.01 19.54-17.41 28.14-42.68 0.82 1.28 1.02 3.16 0.17 1.59 0.51 3.06 3.63 15.4 12.87 29.8 8.43 13.14 20.81 21.84 0.28 0.2 0.49 0.76l-3.67 33.01q-2.6 9.5-7.49 17.61-6.7 13-10.04 21.06-22.34 53.87-27.72 111.03-3.35 35.61-1.45 71.5 0.71 13.35 2.05 28.38 0.06 0.6-0.54 0.65-6.5 0.55-13.06 1.76c-24.57 4.54-45.85 18.75-54.2 42.62-4.61 13.15-4.51 28.79-0.13 41.63 8.22 24.08 28.05 43.02 51.11 53.36q1.79 0.8 2.58 2.35a1.18 1.18 0 0 1-1.19 1.72c-14.59-1.73-29.5-0.29-39.13 11.6-4.6 5.67-6.48 12.29-5.66 19.55q0.91 8.04 7.28 13.35h-91.36q2.07-1.19 3.99-2.28 2.16-1.22 3.81-2.55c17.08-13.78 29.58-31.6 36.33-52.64q6.3-18.07 6.2-40.27-0.12-24.51-6.25-45.17c-7.77-26.19-18.75-50.2-31.55-73.73q-6.85-12.6-18.8-33.36-13.77-23.9-25.35-51.86l-6.39-19.83q23.02-10.51 41.84-28.38 1.76-1.68 3.27-3.46a1.43 1.43 0 0 1 1.52-0.45q18.56 5.82 38.21 12.65c5.69 1.97 10.1-5.97 4.8-9.75q-2.14-1.52-4.61-2.38-15.62-5.46-32.29-10.44-0.87-0.27-0.4-1.05l0.64-1.06 4.64-9.2q0.41-0.31 1.05-0.19 10.13 1.92 20.81 3.96 3.59 0.68 4.93-0.26c3.1-2.19 3.99-6.71 0.37-8.87q-1.77-1.05-3.86-1.45-14.34-2.75-20.1-3.7l0.42-9.87a1.41 1.41 0 0 1 1.17-1.33q11.22-1.9 21.43-3.77c3.48-0.64 7.49-4.19 5.33-8.03q-1.97-3.49-6.13-2.74-8.53 1.52-17.21 3.3-2.91 0.6-5.78 0.88-0.53 0.05-0.65-0.47c-4.56-20.86-15.81-38.06-30.91-53.05q4.05-24.97 4.04-50.44 0-11.17-1.48-22.24c-1.28-9.57-6.07-17.76-17.26-16.16-6.29 0.84-12.85 5.23-17.96 8.93q-14.29 10.36-26.91 24.42-6.43 7.16-12.05 13.83a1.21 1.2 27.2 0 1-1.24 0.39q-17.19-4.49-34.08-4.4-16.74-0.37-31.89 3.9-2.28 0.64-3.21-0.44-10.97-12.65-21.48-22.77-12.26-11.79-27.51-20.96-5.67-3.4-12.3-2.9-7.1-0.09-11.01 5.65c-2.55 3.74-3.25 8.73-3.69 13.45q-1.16 12.7-0.8 24.55 0.69 22.26 4.88 45.15-7.81 7.07-15.54 17.42-12.56 16.82-16.14 36.93-12.73-2.93-26.93-5-4.18-0.61-5.82 2.25c-2.07 3.62 0.96 8.01 4.56 8.55q12.86 1.95 25.65 3.85-0.5 5.83 0.56 11.08-10.63 1.86-20.81 3.99-5.78 1.21-4.45 6.78c1.02 4.27 5.1 4.31 8.7 3.42q9.11-2.26 18.93-4.18l3.97 6.75 1.77 4.65q0.23 0.6-0.41 0.66c-1.61 0.13-3.33 0.44-4.87 0.92q-13.51 4.18-27.23 8.6-3.23 1.04-5.98 2.35c-6.65 3.17-3.07 12.47 4.25 10.07q18.42-6.02 38.37-12.37 1.82-0.58 3.07 0.67 16.77 16.7 37.78 28.43c2.18 1.22 4.49 2.08 6.82 3.04a0.57 0.56 18.8 0 1 0.33 0.67l-4.81 17.96q-12.73 29.49-29.84 57.67c-11.4 18.78-21.44 35.22-32.65 57.07q-6.22 12.12-13.64 30.14-12.2 29.62-12.66 60.24l-0.24-2.02q-0.06-0.5-0.56-0.58-2.09-0.32-2.9-2.15-2.06-4.67-4.06-9.16c-2.71-6.07-6.56-12.1-9.01-17.61q-1.17-2.64-3.53-10.7 4.47-10.51 0.5-20.54-5.13-12.95-18.78-16.69-0.11-1.77-0.16-3.54-0.06-1.89-0.41-3.5c-0.99-4.64-1.89-8.91-3.62-13.58q-2.22-5.98-3.78-12.52-1.26-5.28-2.7-10.73-1.25-4.73-2.64-10.76-2.06-8.95-3.37-16.97c-1.07-6.61-2.28-13.01-3.65-19.64-0.55-2.66-0.57-5.4-1.18-8.25q-1.14-5.34-1.36-11.38-0.2-5.62-0.66-11.42-2.34-29.44-1.31-60.72 0.26-8.21 1.69-19.94 1.19-9.7 2.12-20.42c0.33-3.79 1.46-7.44 1.96-11.11q1.17-8.64 3.65-18.18 1.38-5.33 2.15-9.91c0.74-4.4 1.51-9.01 3.13-13.19q2.32-6 3.76-12.52 1.36-6.2 3.52-12.37 5.83-16.66 12.51-32.94 3.73-9.09 8.44-18.41 4.91-9.74 9.98-19.88c3.29-6.57 8.01-13.71 11-19.08q3.73-6.72 9.07-14.7 11.89-17.81 24.02-33.66c3.42-4.46 6.25-9.22 10.27-13.24q2.83-2.83 5.11-7.91 0.06-0.15-0.04-0.28-0.03-0.04-0.05-0.09-0.05-0.08 0-0.16 1.14-1.81 1.37-4.01 0.05-0.51 0.28-0.97 0.56-1.17 0.08-2.7l6.98-0.06q1.29-0.01 0.42 0.94c-5.31 5.77-7.91 13.51-5.29 21.14 3.03 8.79 11.13 15.06 20.29 11.21 8.59-3.6 12.74-11.52 11.39-21.24q-0.14-0.95 0.43-0.17c0.98 1.37 1.59 3.19 3.24 3.88 2.09 0.88 5.13 0.08 5.64-2.35q0.4-1.87-0.31-4.38-0.84-2.93 0.85-0.39 0.99 1.48 1.99 2.97c5.47 8.24 15.47 11.59 24.39 6.5q5.88-3.35 7.24-10.91 1.1-6.12-2.63-12.49-4.36-7.46-13.79-9.73-1.02-0.24-0.13-0.79c9.41-5.81 15.85-13.47 15.69-25.27q-0.05-3.39-0.35-6.64 0.98-1.04 1.85-2.04 0.95-1.09 2.1-1.78c7.05-4.23 13.76-8.94 20.94-12.91 3.52-1.95 7.09-4.06 10.74-5.69 6.48-2.91 12.85-6.55 19.39-9.28 7.36-3.07 14.77-6.89 22.58-9.43q5.04-1.65 9.56-3.56 5.14-2.16 10.29-3.6 5.2-1.47 10.27-3.55c2.6-1.07 5.44-1.23 8.11-2.13q6.51-2.19 13.1-3.74c4.2-0.99 8.19-2.41 12.54-3.42q11.46-2.66 22.22-4.88 9.92-2.04 19.66-2.97 11.95-1.13 24.33-2.68 9.58-1.19 18.97-1.57 9.65-0.39 19.09-0.65c9-0.26 17.84 0.44 27 0.84 3.27 0.14 6.48 0.87 9.69 1q4.17 0.18 9.04 0.8 15.45 2 27.73 3.61c5.43 0.72 10.86 2.63 16.44 3.2q4.86 0.49 9.78 1.95 4.45 1.32 9.71 2.49 11.68 2.6 23.15 5.9 6.29 1.81 16.27 5.57 5.8 2.18 10.8 3.94c8 2.81 15.79 6.24 23.47 9.27 11.04 4.34 20.96 9.6 31.49 14.9q5.12 2.58 10.39 5.9 2.43 1.52 3.77 3.16 1.07 1.32 0.06 2.52zm-329.59 11.08a8.94 7.13 99.4 0 0 8.4944-7.6555 8.94 7.13 99.4 0 0-5.5742-9.9845 8.94 7.13 99.4 0 0-8.4944 7.6555 8.94 7.13 99.4 0 0 5.5742 9.9845zm14.694 10.885a10.5 9.17 123.9 0 0 13.468-3.6006 10.5 9.17 123.9 0 0-1.7549-13.83 10.5 9.17 123.9 0 0-13.468 3.6006 10.5 9.17 123.9 0 0 1.7549 13.83zm-34.927 5.1308a10.96 9.68 96.2 0 0 10.807-9.8505 10.96 9.68 96.2 0 0-8.4397-11.941 10.96 9.68 96.2 0 0-10.807 9.8505 10.96 9.68 96.2 0 0 8.4397 11.941zm9.1537 34.234q8.99 3.76 17.48 0.81c10.29-3.58 7.06-19.48 5.58-27.45q-0.95-5.13-3.24-8.15c-3.14-4.15-9.91-4.73-14.41-1.95-5.33 3.29-10.37 7.38-14.41 11.91q-5.12 5.74-3.21 12.82c1.55 5.76 6.81 9.74 12.21 12.01zm31.25-14.018a10.65 9.34 132.1 0 0 14.07-1.6402 10.65 9.34 132.1 0 0 0.2099-14.164 10.65 9.34 132.1 0 0-14.07 1.6402 10.65 9.34 132.1 0 0-0.2099 14.164z"/> <path d="m905.68 343.67q0.16 0.21 0.21 0.5 0.12 0.74 0.66 0.26 0.17-0.15 0.39-0.11 0.5 0.08 0.75 0.52 8.93 15.95 14.9 31.07c3.73 9.47 7.56 19.61 10.75 29.65q1.67 5.25 3.64 10.63c2.08 5.71 3 11.96 4.57 17.81q3.04 11.38 4.92 21.03 1.71 8.82 3.17 16.74 3.79 20.59 4.88 35.01c1.72 22.7 1.54 42.78 0.89 64.44q-0.31 10.62-1.27 21.09-1.53 16.59-4.65 36.41c-1.31 8.25-3.62 16.46-5.06 24.74-0.31 1.74-1.03 3.31-1.43 5.03q-4.06 17.81-10.55 37.66-1.84 5.64-4.02 10.91c-2.04 4.97-3.5 9.97-5.57 14.96q-3.15 7.6-6.47 15.6-0.86 2.06-4.88 2.96-7.88-17.56-23.84-28.38c-13.87-9.39-30.64-13.58-47.36-13.79a0.56 0.56 0 0 1-0.56-0.61q4.09-50.19-0.75-98.91c-2.04-20.49-5.98-40.95-11.2-60.63q-9.84-37.19-27.24-71.18-2.2-3.67-6.46-12.18-1.98-3.95-2.05-7.02l-4.49-33.48 0.59-0.7q0.3-0.36 0.72-0.59 2.87-1.59 5.82-4.37c13.9-13.12 22.28-29.81 27.04-47.9q0.22-0.82 0.28-2.21 0.11-2.16 1.07-2.08 8.33 24.4 27.06 42.3 3.17 3.03 6.97 2.81 1.8-0.11 4.3-1.66 1.97-1.21 4-2.47 18.83-16.81 32.02-38.6 1.96-3.24 8.25-15.26z"/> <path d="m61.39 896.42q0.94 1.59 2.53 2.56 1.23 0.74 3.34 0.77 6.27 0.09 11.92 0.1 435.69 0.04 849.25 0.07 4.7 0 9.1-0.16 1.19-0.05 2.21-0.58 1.3-0.69 2.01-1.18 7.82 0.8 15.5 0.24 1.77-0.13 4.27 0.36c7.32 1.46 10.38 6.74 7.9 14.36-1.41 4.33-5.86 5.26-10.06 5.3q-35.42 0.34-62.36 0.1c-19.68-0.17-38.88 0.23-58.25 0.1-34.8-0.24-70.44 0.12-106.25 0.09q-101.27-0.11-207.25-0.03-80.78 0.06-158.25-0.21-8.78-0.03-20.01 0.09c-18.12 0.2-36.36-0.04-54.49 0.03-38.92 0.14-78.18-0.16-117.5 0.09q-61.1 0.39-126.75-0.32c-3.18-0.03-6.32-2.5-7.41-5.48-2.62-7.1 1-13.92 8.74-14.56q5.91-0.48 11.81-1.74z"/> </g> <g fill="#f39e4a"> <path d="m310.38 379.77 0.58 55.78q-0.91 0.8-1 2.44-0.12 1.93-0.25 2.51-5.18 21.93-21.79 36.79-7.49 6.7-13.22 10.12-39 23.3-83.92 28.54-1.12 0.13-2.21 0.11-1.21-0.01-2.11 0.57-4.61-0.75-10.41 0.61l-3.97-6.75q2.93-0.59 6.66-1.29 1.79-0.34 3.53-1.33c2.8-1.6 2.15-5.27-0.05-7.03q-2.03-1.63-4.72-1.43-4.12 0.31-7.79 1.07-1.06-5.25-0.56-11.08 2.36 0.9 6.1 1.48 4.59 0.72 6.12-2.84c2.47-5.73-6.2-7.62-9.68-8.29q3.58-20.11 16.14-36.93 7.73-10.35 15.54-17.42 7.16-6.07 14.32-11.17c0.41-0.3 0.61-0.81 0.63-1.27l0.71 0.09a1.05 1.03 27.6 0 0 0.79-0.24c3.86-3.28 7.43-6.57 11.81-9.35q8.95-5.69 18.4-10.17a1.81 1.81 0 0 0 0.59-2.82c-1.95-2.25-3.87-4.38-5.57-6.87q-3.46-5.09-6.54-7.98c-5.01-4.69-9.22-9.49-14.57-13.93q-4.16-3.46-8.38-8.57-0.26-0.32-0.38-0.71l-2.27-7.07 1.08-8.74q6.63-0.5 12.3 2.9 15.25 9.17 27.51 20.96 10.51 10.12 21.48 22.77 0.93 1.08 3.21 0.44 15.15-4.27 31.89-3.9zm-51.156 94.708a14.51 14.18 123.3 0 0 19.818-4.3425 14.51 14.18 123.3 0 0-3.8854-19.913 14.51 14.18 123.3 0 0-19.818 4.3425 14.51 14.18 123.3 0 0 3.8854 19.913z"/> <path d="m395.22 584.38q11.58 27.96 25.35 51.86 11.95 20.76 18.8 33.36c12.8 23.53 23.78 47.54 31.55 73.73q6.13 20.66 6.25 45.17 0.1 22.2-6.2 40.27-3.7-1.9-8.72-0.63-3.4 0.86-7.26 3.86c-3.97 3.09-7.16 8.15-10.4 12.38s-7.09 7.96-10.76 11.7q-7.33 7.48-15.61 12.6c-4.19 2.59-8.32 5.28-12.81 7.37q-6.6 3.07-13.32 5.87-0.42 0.18-2.23 0.77-1.02 0.33-2.03 0.9a2.77 2.68-60 0 1-1.19 0.34q-1.62 0.06-2.32 1.35-0.27 0.51-0.83 0.66l-3.21 0.86-3.2 0.18a0.31 0.31 0 0 1-0.29-0.44c3.17-6.56 4.7-13.44 6.88-20.3q13.62-42.83 25.46-81.36 2.88-9.4 3.39-12.63 1.3-8.4-7.73-8.56 0.2-0.76-1.06-0.78-0.85-0.01-2.02 1.05-4.71 4.29-9.32 8.69-6.47 6.17-9.37 8.59-24.92 20.83-56.64 28.95l0.28-54.34q7.62-4.33 8.11-13.35c0.43-7.92-0.71-14.89-2.21-22.47a1.26 1.26 0 0 1 0.58-1.33c9.01-5.43 17.61-12.11 24.52-20.68 11.49-14.27 19.55-31.66 21.08-49.78q2.35-27.71-10.27-52.43l0.77 0.06q0.55 0.04 0.78-0.46 0.46-0.98 1.31-1.34c2.69-1.15 5.41-2.08 8.11-3.42q7.72-3.82 15.78-6.27z"/> <path d="m97.77 708.56q13.65 3.74 18.78 16.69 3.97 10.03-0.5 20.54-5.35 8.76-12.09 15.46 0.28-0.5 0.12-0.66a0.82 0.82 0 0 0-0.89-0.22q-6.2 2.29-13.35 1.48-6.83-0.76-11.13-2.87-11.03-5.4-15.62-17.27-1.74-4.47-1.17-10.05 0.51-4.97 2.39-10.55 6.58-6.77 15.87-10.69 8.01-3.38 17.59-1.86z"/> </g> <g fill="#725d48"> <path d="m402.62 336.6q0.45 0.92 1.11 1.84 0.71 0.99 1 1.84 2.03 6.04 2.06 11.52-8.52 6.36-15.44 13.55-11.64 12.08-22.05 26.32a0.89 0.89 0 0 0 0.35 1.34q18.66 8.25 33.88 21.37a0.26 0.25 25.9 0 0 0.42-0.14l0.17-0.96 0.56 1.35q0.17 0.41 0.58 0.58 4.86 2.11 7.17 6.3 0.08 0.14 0.24 0.14 0.2-0.01 0.37-0.1a0.63 0.62 50 0 1 0.72 0.07l1.87 1.6a0.78 0.78 0 0 1 0.25 0.8q-0.46 1.78 1.19 2.87 0.53 0.35 0.6-0.29 0.05-0.45-0.35-1.16c15.1 14.99 26.35 32.19 30.91 53.05q0.12 0.52 0.65 0.47 2.87-0.28 5.78-0.88 8.68-1.78 17.21-3.3 4.16-0.75 6.13 2.74c2.16 3.84-1.85 7.39-5.33 8.03q-10.21 1.87-21.43 3.77a1.41 1.41 0 0 0-1.17 1.33l-0.42 9.87q-1.07-0.19-3.4-0.19c-2.42 0-6.06 0.06-6.75 2.84-0.41 1.61-1.03 3.89 0.11 5.29a1.21 1.2 69.7 0 0 0.95 0.44q3.81-0.09 5.89 2.13l-4.64 9.2q0-0.31-0.1-0.52-0.24-0.5-0.7-0.21-0.25 0.16-0.58 0.19-0.45 0.02-0.61-0.39c-0.88-2.23-3.82-2.68-5.93-3.1q-0.38-0.08-0.74 0.08-0.89 0.38-0.28 0.78-26.44-3.91-50.9-13.05c-32.11-11.98-65.63-30.53-71.01-68.46l-0.58-55.78q16.89-0.09 34.08 4.4a1.21 1.2 27.2 0 0 1.24-0.39q5.62-6.67 12.05-13.83 12.62-14.06 26.91-24.42c5.11-3.7 11.67-8.09 17.96-8.93zm-44.336 139.51a14.59 14.23 71.4 0 0 8.8331-18.367 14.59 14.23 71.4 0 0-18.14-9.2891 14.59 14.23 71.4 0 0-8.8331 18.367 14.59 14.23 71.4 0 0 18.14 9.2891z"/> <path d="m225.14 582.89q2.26 0.23 4.44 0.66 2.25 0.45 4.16 1.42 5.49 2.77 11.07 5.5c1.79 0.87 3.63 1.4 5.43 2.17q0.45 0.19 0.73 0.59l2.04 2.9q-2.4 5.15-3.08 6.8c-16.33 39.8-4.97 84.62 29.76 110.42q4.13 3.06 8.35 5.78a1.26 1.24 22.5 0 1 0.55 1.31q-1.36 6.5-2.07 13.54-0.48 4.78 0.09 8.76 0.77 5.42 3.29 9.24 1.73 10.26 1.52 16.52-0.71 20.56-0.29 41.13 0.02 1.11-1.53 2.1 0.36-0.57 0.11-1.01-0.15-0.28-0.46-0.37-12.38-3.7-21.92-7.73-18.08-7.66-33.56-20.03-3.56-2.84-11.74-10.47-5.62-5.25-11.64-10.6-4.59 1.28-6.36 5.07-1.44 3.08-0.73 7.38 0.66 4.01 1.75 7.66 3.19 10.7 6.9 21.28c0.94 2.69 1.38 5.92 2.19 8.25q1.25 3.63 2.26 7.23 1.26 4.53 2.22 7.28 3.74 10.71 7.09 20.94 1.27 3.89 2.24 7.89c1.71 7.08 4.26 13.87 6.33 20.83q1.82 6.11 4.6 10.94a0.95 0.95 0 0 1-0.87 1.43c-5.94-0.27-12.17-3.05-17.92-4.97q-6.25-2.09-11.18-4.58-16.31-8.23-25.93-16.11-10.6-8.68-19.72-20.58-3.11-4.06-5.83-9.08c-1.14-2.11-3.22-3.39-5.44-4.07q-2.97-0.93-6.25-1.83-2.94-0.82-3.89 1.73-5.93-19.56-5.5-40.2 0.46-30.62 12.66-60.24 7.42-18.02 13.64-30.14c11.21-21.85 21.25-38.29 32.65-57.07q17.11-28.18 29.84-57.67z"/> </g> <g fill="#c96935"> <path d="m615.79 448.07q1.89 1.4 3.7 2.91 2.06 1.71 3.78 2.75c38.05 22.88 86 26.07 128.15 14.21q21.92-6.17 40.63-20.06 0.07 3.07 2.05 7.02 4.26 8.51 6.46 12.18-1.54-0.21-2.65-0.25-1.26-0.04-2.29 0.66-19.67 13.43-42.21 20.34-19.68 6.03-43.42 7.57-8.65 0.57-16.14-0.14c-22-2.06-43.91-7.22-62.65-16.45q-4.96-2.44-11.68-6.56-5.44-3.33-11.22-6.57 4.89-8.11 7.49-17.61z"/> <path d="m613.32 741.25c-7.19-6.36-14.6-10.85-24.48-8.65q-1.47-3.51-1.67-5.35-0.69-6.3-0.84-17.5-0.27-19.86 0.73-45.29 0.05-1.25 0.74-2.02 1.04-1.15 1.66 0.27c2.33 5.33 4.72 10.8 6.47 16.36q5.83 18.45 15.56 50.68 1.99 6.58 1.83 11.5z"/> <path d="m825.04 730.28q-8.96-3.43-16.5 1.28-1.4 0.88-4.86 3.64-0.55-3.71 0.34-7.47c3.19-13.58 7.18-26.47 10.68-39.91q3.39-13 7.36-24.11 0.35-0.97 1-1.73a0.93 0.93 0 0 1 1.6 0.38q1.1 4.11 1.22 8.39c0.29 9.64 0.55 18.24 0.36 28.66q-0.16 8.64 0.07 18.59 0.14 5.98-1.27 12.28z"/> <path d="m841.71 886.8-39.02 0.17a0.61 0.61 0 0 1-0.53-0.93q6.31-10.33 3.11-22.77 2.47-0.22 4.84-0.65 2.71-0.49 4.91-0.54 9.69-0.23 19.43-0.37c2.46-0.03 3.48-0.42 4.06 2.54q2.73 13.75 3.2 22.55z"/> <path d="m608.47 864.17q-0.94 5.64-0.07 11.34c0.58 3.8 2.5 6.96 4.04 10.43a0.61 0.61 0 0 1-0.56 0.85l-37.17-0.24q-0.68-1.22-1.1-2.34-0.41-1.1-0.23-2.5 1.1-8.91 2.87-17 0.35-1.61 2-1.64 15.33-0.27 30.22 1.1z"/> </g> <g fill="#f5946f"> <path d="m212.91 345.34 2.27 7.07q0.12 0.39 0.38 0.71 4.22 5.11 8.38 8.57c5.35 4.44 9.56 9.24 14.57 13.93q3.08 2.89 6.54 7.98c1.7 2.49 3.62 4.62 5.57 6.87a1.81 1.81 0 0 1-0.59 2.82q-9.45 4.48-18.4 10.17c-4.38 2.78-7.95 6.07-11.81 9.35a1.05 1.03 27.6 0 1-0.79 0.24l-0.71-0.09c-4.03-20.58-6.72-39.99-6.32-60.71q0.04-1.73 0.91-6.91z"/> <path d="m406.79 351.8q1.73 31.33-2.67 61.48l-0.17 0.96a0.26 0.25 25.9 0 1-0.42 0.14q-15.22-13.12-33.88-21.37a0.89 0.89 0 0 1-0.35-1.34q10.41-14.24 22.05-26.32 6.92-7.19 15.44-13.55z"/> </g> </svg>